<?xml version="1.0" encoding="UTF-8" standalone="no"?>
<svg
   xml:space="preserve"
   style="enable-background:new 0 0 1080 1080;"
   viewBox="0 0 1080 1080"
   y="0px"
   x="0px"
   id="Content"
   version="1.1"
   sodipodi:docname="company-icon.svg"
   inkscape:version="1.4 (86a8ad7, 2024-10-11)"
   xmlns:inkscape="http://www.inkscape.org/namespaces/inkscape"
   xmlns:sodipodi="http://sodipodi.sourceforge.net/DTD/sodipodi-0.dtd"
   xmlns="http://www.w3.org/2000/svg"
   xmlns:svg="http://www.w3.org/2000/svg"
   xmlns:rdf="http://www.w3.org/1999/02/22-rdf-syntax-ns#"
   xmlns:cc="http://creativecommons.org/ns#"
   xmlns:dc="http://purl.org/dc/elements/1.1/"
   xmlns:i="&amp;#38;ns_ai;"><sodipodi:namedview
   id="namedview1"
   pagecolor="#ffffff"
   bordercolor="#000000"
   borderopacity="0.25"
   inkscape:showpageshadow="2"
   inkscape:pageopacity="0.0"
   inkscape:pagecheckerboard="0"
   inkscape:deskcolor="#d1d1d1"
   inkscape:zoom="0.74722222"
   inkscape:cx="450.33457"
   inkscape:cy="465.05576"
   inkscape:window-width="2560"
   inkscape:window-height="1009"
   inkscape:window-x="-8"
   inkscape:window-y="-8"
   inkscape:window-maximized="1"
   inkscape:current-layer="Content" /><metadata
   id="metadata17"><rdf:RDF><cc:Work
       rdf:about=""><dc:format>image/svg+xml</dc:format><dc:type
         rdf:resource="http://purl.org/dc/dcmitype/StillImage" /></cc:Work></rdf:RDF></metadata><defs
   id="defs15" />
<switch
   style="fill:#ffffff;fill-opacity:1;stroke:#ffffff;stroke-width:8;stroke-miterlimit:4;stroke-dasharray:none;stroke-opacity:1"
   id="switch10"
   transform="matrix(1.4302708,0,0,1.3668123,-231.00757,-208.11398)">
	<g
   style="fill:#ffffff;fill-opacity:1;stroke:#ffffff;stroke-width:8;stroke-miterlimit:4;stroke-dasharray:none;stroke-opacity:1"
   id="g8"
   i:extraneous="self">
		<g
   style="fill:#ffffff;fill-opacity:1;stroke:#ffffff;stroke-width:8;stroke-miterlimit:4;stroke-dasharray:none;stroke-opacity:1"
   id="g6">
			<path
   style="fill:#ffffff;fill-opacity:1;stroke:#ffffff;stroke-width:8;stroke-miterlimit:4;stroke-dasharray:none;stroke-opacity:1"
   id="path2"
   d="M 911.43,538.1 732.16,218.95 c -1.67,-2.97 -4.81,-4.81 -8.22,-4.81 H 348.03 c -7.22,0 -11.75,7.78 -8.2,14.06 l 173.85,307.5 c 1.65,2.92 1.62,6.5 -0.07,9.4 L 334.06,851.67 c -3.68,6.28 0.85,14.18 8.13,14.18 h 376.09 c 3.34,0 6.42,-1.76 8.12,-4.64 L 911.33,547.5 c 1.71,-2.89 1.74,-6.47 0.1,-9.4 z" />
			<path
   style="fill:#ffffff;fill-opacity:1;stroke:#ffffff;stroke-width:8;stroke-miterlimit:4;stroke-dasharray:none;stroke-opacity:1"
   id="path4"
   d="M 298.99,305.86 168.58,536.53 c -1.65,2.92 -1.62,6.5 0.07,9.4 l 130.41,222.68 c 4.86,8.29 17.55,4.85 17.55,-4.76 V 310.5 c 0.01,-9.69 -12.85,-13.07 -17.62,-4.64 z" />
		</g>
	</g>
</switch>
</svg>
