<?xml version="1.0" standalone="no"?>
<!DOCTYPE svg PUBLIC "-//W3C//DTD SVG 20010904//EN"
 "http://www.w3.org/TR/2001/REC-SVG-20010904/DTD/svg10.dtd">
<svg version="1.0" xmlns="http://www.w3.org/2000/svg"
 width="1080.000000pt" height="1080.000000pt" viewBox="0 0 1080.000000 1080.000000"
 preserveAspectRatio="xMidYMid meet">

<g transform="translate(0.000000,1080.000000) scale(0.100000,-0.100000)"
fill="#000000" stroke="none">
<path d="M0 5400 l0 -5400 5400 0 5400 0 0 5400 0 5400 -5400 0 -5400 0 0
-5400z m7310 3285 c16 -8 44 -40 63 -73 18 -31 429 -761 913 -1622 696 -1240
880 -1574 882 -1606 3 -30 -3 -55 -22 -90 -13 -27 -436 -746 -939 -1599 -716
-1215 -921 -1555 -947 -1572 l-33 -23 -1924 0 c-2161 0 -1968 -7 -2005 77 -14
31 -18 55 -13 79 3 19 413 730 911 1580 631 1077 905 1553 902 1568 -2 12
-397 716 -877 1565 -581 1027 -875 1557 -878 1581 -7 48 21 106 61 131 30 18
90 19 1954 19 1691 0 1927 -2 1952 -15z m-4170 -868 c13 -7 35 -28 47 -46 l23
-34 -2 -2318 -3 -2318 -30 -31 c-57 -59 -152 -63 -202 -8 -11 13 -317 529
-679 1148 l-659 1125 1 55 c0 54 13 77 665 1229 521 920 670 1178 694 1192 35
22 108 25 145 6z"/>
</g>
</svg>
