<?xml version="1.0" encoding="UTF-8" standalone="no"?>
<svg
   xml:space="preserve"
   style="enable-background:new 0 0 1080 1080;"
   viewBox="0 0 1080 1080"
   y="0px"
   x="0px"
   id="Content"
   version="1.1"
   sodipodi:docname="logo.svg"
   inkscape:version="1.4 (86a8ad7, 2024-10-11)"
   xmlns:inkscape="http://www.inkscape.org/namespaces/inkscape"
   xmlns:sodipodi="http://sodipodi.sourceforge.net/DTD/sodipodi-0.dtd"
   xmlns="http://www.w3.org/2000/svg"
   xmlns:svg="http://www.w3.org/2000/svg"
   xmlns:rdf="http://www.w3.org/1999/02/22-rdf-syntax-ns#"
   xmlns:cc="http://creativecommons.org/ns#"
   xmlns:dc="http://purl.org/dc/elements/1.1/"
   xmlns:i="&amp;#38;ns_ai;"><sodipodi:namedview
   id="namedview1"
   pagecolor="#ffffff"
   bordercolor="#000000"
   borderopacity="0.25"
   inkscape:showpageshadow="2"
   inkscape:pageopacity="0.0"
   inkscape:pagecheckerboard="0"
   inkscape:deskcolor="#d1d1d1"
   inkscape:zoom="2.1134636"
   inkscape:cx="392.95685"
   inkscape:cy="638.05215"
   inkscape:window-width="2560"
   inkscape:window-height="1009"
   inkscape:window-x="-8"
   inkscape:window-y="-8"
   inkscape:window-maximized="1"
   inkscape:current-layer="Content" /><metadata
   id="metadata17"><rdf:RDF><cc:Work
       rdf:about=""><dc:format>image/svg+xml</dc:format><dc:type
         rdf:resource="http://purl.org/dc/dcmitype/StillImage" /></cc:Work></rdf:RDF></metadata><defs
   id="defs15" />
<switch
   style="fill:#000000;fill-opacity:1;stroke:#ffffff;stroke-opacity:1;stroke-width:8;stroke-miterlimit:4;stroke-dasharray:none"
   id="switch10">
	<g
   style="fill:#000000;fill-opacity:1;stroke:#ffffff;stroke-opacity:1;stroke-width:8;stroke-miterlimit:4;stroke-dasharray:none"
   id="g8"
   i:extraneous="self">
		<g
   style="fill:#000000;fill-opacity:1;stroke:#ffffff;stroke-opacity:1;stroke-width:8;stroke-miterlimit:4;stroke-dasharray:none"
   id="g6">
			<path
   style="fill:#ffffff;fill-opacity:1;stroke:#ffffff;stroke-opacity:1;stroke-width:8;stroke-miterlimit:4;stroke-dasharray:none"
   id="path2"
   d="M911.43,538.1L732.16,218.95c-1.67-2.97-4.81-4.81-8.22-4.81H348.03c-7.22,0-11.75,7.78-8.2,14.06l173.85,307.5     c1.65,2.92,1.62,6.5-0.07,9.4L334.06,851.67c-3.68,6.28,0.85,14.18,8.13,14.18h376.09c3.34,0,6.42-1.76,8.12-4.64L911.33,547.5     C913.04,544.61,913.07,541.03,911.43,538.1z" />
			<path
   style="fill:#ffffff;fill-opacity:1;stroke:#ffffff;stroke-opacity:1;stroke-width:8;stroke-miterlimit:4;stroke-dasharray:none"
   id="path4"
   d="M298.99,305.86L168.58,536.53c-1.65,2.92-1.62,6.5,0.07,9.4l130.41,222.68c4.86,8.29,17.55,4.85,17.55-4.76V310.5     C316.62,300.81,303.76,297.43,298.99,305.86z" />
		</g>
	</g>
</switch>
</svg>
